<?xml version="1.0" encoding="utf-8"?>
<!-- Generator: Adobe Illustrator 17.1.0, SVG Export Plug-In . SVG Version: 6.00 Build 0)  -->
<!DOCTYPE svg PUBLIC "-//W3C//DTD SVG 1.1//EN" "http://www.w3.org/Graphics/SVG/1.1/DTD/svg11.dtd">
<svg version="1.1" id="Layer_1" xmlns="http://www.w3.org/2000/svg" xmlns:xlink="http://www.w3.org/1999/xlink" x="0px" y="0px"
	 viewBox="0 0 252 144" enable-background="new 0 0 252 144" xml:space="preserve">
<g>
	<path d="M147.61,52.22c-3.92,0.89-7.37,2.71-10.81,4.54c-1.01,0.54-1.98,1.18-3.03,1.65c-4.99,2.24-8.01,6.62-11.52,10.48
		c-5.84,6.43-11.85,12.7-18.14,18.71c-1.69,1.62-3.29,3.34-4.95,4.99c-2.45,2.43-4.9,4.85-7.38,7.24c-0.89,0.86-1.95,1.11-2.99,0.3
		c-0.98-0.76-1.02-1.81-0.51-2.87c1.26-2.59,3.06-4.81,4.95-6.94c7.45-8.43,15.77-15.94,24.62-22.86c2.54-1.98,5.13-3.89,7.83-5.64
		c1.93-1.25,3.06-3.15,4.29-4.97c3.17-4.67,6.57-9.22,8.9-14.41c0.36-0.8,1.17-1.84,0.5-2.52c-0.58-0.59-1.64,0.16-2.43,0.46
		c-5.38,2.04-9.86,5.5-14.2,9.13c-6.06,5.06-11.32,10.89-16.18,17.09c-0.09,0.11-0.16,0.23-0.25,0.33
		c-0.75,0.86-1.64,1.25-2.67,0.55c-1.07-0.73-0.96-1.74-0.33-2.67c1.65-2.45,3.51-4.74,5.78-6.64c7.56-6.31,15.34-12.32,23.61-17.69
		c1.89-1.23,3.82-2.39,5.77-3.51c1.2-0.69,2.51-1.06,3.75-0.09c1.29,1.01,1.44,2.4,1.02,3.88c-0.84,2.88-2.66,5.23-4.31,7.66
		c-2.08,3.07-4.39,5.97-6.68,8.92c3.66-2.21,7.49-4.08,11.25-6.07c2.32-1.22,4.65-2.42,7-3.59c1.47-0.73,2.61-0.59,3.4,0.34
		c0.78,0.92,0.72,2.02-0.3,3.4c-2.1,2.83-4.87,5.01-7.47,7.32c-7.49,6.66-15.33,12.92-22.21,20.24c-2.61,2.77-5.34,5.48-7.08,8.94
		c-0.78,1.54-0.65,1.8,1.04,1.65c4.38-0.39,8.41-1.88,12.14-4.17c1.81-1.11,3.41-0.51,3.74,1.6c0.14,0.9,0.51,1.17,1.34,1.13
		c6.21-0.3,12.4,0.59,18.6,0.3c0.69-0.03,1.38-0.06,2.06-0.18c2.48-0.44,4.4,0.38,5.89,2.4c1.27,1.72,1.67,1.79,3.29,0.41
		c4.39-3.74,8.36-7.89,11.57-12.71c1.19-1.79,1.4-3.97,2-5.99c0.28-0.94-0.7-0.58-1.13-0.49c-3.86,0.82-7.73,1.66-11.58,2.54
		c-2.1,0.48-4.19,1.06-6.34,1.29c-1.43,0.15-2.4-0.33-2.63-1.41c-0.28-1.3,0.52-2,1.58-2.4c3.66-1.38,7.45-2.36,11.23-3.3
		c3.61-0.9,7.27-1.63,10.96-2.14c0.7-0.1,1.33-0.28,1.93-0.67c0.33-0.21,0.81-0.42,1.16-0.34c3.24,0.73,6.49-0.29,9.73,0.05
		c1.14,0.12,2.33-0.02,3.42,0.34c4.46,1.45,8.94,0.22,13.4,0.14c4.46-0.08,8.91-0.2,13.37,0.03c4.22,0.22,8.44,0.46,12.64,0.92
		c2.46,0.27,4.93,0.55,7.39,0.87c0.65,0.08,1.38,0.36,1.19,1.2c-0.17,0.75-0.83,0.84-1.56,0.72c-9.95-1.68-20-2.21-30.07-2.06
		c-3.2,0.05-6.43,0.14-9.79,0.61c2.96,2.85,3.06,6.15,1.66,9.65c-0.34,0.85-0.79,1.66-1.25,2.45c-4.03,6.84-9.95,11.49-17.11,14.64
		c-2.7,1.19-5.57,1.97-8.58,1.28c-2.2-0.5-3.82-1.88-4.21-4.09c-0.4-2.23,0.09-4.4,2.01-5.98c0.31-0.25,0.84-0.39,0.8-0.87
		c-0.05-0.61,0.1-1.47-0.51-1.73c-0.48-0.2-0.69,0.6-0.96,0.99c-1.89,2.71-3.54,5.6-5.91,7.96c-1.15,1.14-2.43,2.1-3.88,2.84
		c-2.17,1.11-4.57,0.72-5.83-1.36c-1.28-2.1-2.9-2.33-5.12-2.07c-3,0.36-6.05,0.32-9.08-0.07c-3.89-0.5-7.8-0.26-11.71-0.3
		c-0.84-0.01-1.67,0-2.38-0.52c-0.47-0.34-0.85-0.22-1.23,0.14c-0.67,0.62-1.44,0.79-2.3,0.5c-0.58-0.2-1.08,0.06-1.6,0.23
		c-2.66,0.89-5.33,1.74-8.16,1.94c-1.31,0.09-2.58-0.06-3.8-0.49c-2.32-0.82-3.17-3.12-1.93-5.24c1.53-2.62,3.8-4.61,5.98-6.64
		c7.74-7.21,15.29-14.62,22.66-22.2C143.22,57.02,145.39,54.6,147.61,52.22z M203.02,75.2c0.02-1.05-0.19-2.05-0.88-2.84
		c-2.01-2.31-4.48-3.6-7.63-3.22c-1.78,0.22-3.55,0.48-5.33,0.68c-5.6,0.61-6.71,1.53-8.17,7.02c-0.77,2.89-1,5.74,0.4,8.59
		c1,2.05,0.03,3.55-2.25,3.7c-1.17,0.07-1.51,0.66-1.5,1.68c0.01,1.49,1.24,2.29,3.1,1.93c7.29-1.4,13.67-4.49,18.64-10.14
		C201.28,80.48,202.9,78.19,203.02,75.2z M97.69,91.28c9.25-7.98,17.88-16.58,25.77-25.93C113.58,72.71,105.1,81.46,97.69,91.28z"/>
	<path d="M29.33,97.88c-0.38-0.11-0.47-0.17-0.55-0.16c-3.71,0.52-4.3-2.22-3.51-4.71c1.27-3.97,3.59-7.22,7.1-9.54
		c0.81-0.53,1.32-1.18,1.69-2.08c1.66-4,4.24-7.42,7.03-10.66c6.59-7.65,14.14-14.17,22.83-19.35c3.61-2.15,7.33-4.04,11.54-4.73
		c1.81-0.3,3.55-0.16,4.8,1.34c1.24,1.5,0.97,3.17,0.21,4.81c-0.44,0.94-0.9,1.87-1.47,3.04c1.56-0.61,2.86-1.14,4.17-1.64
		c1.34-0.52,2.7-0.88,4.16-0.82c2.59,0.1,3.68,2.09,2.27,4.29c-1.07,1.68-2.58,2.99-4,4.36c-6.86,6.62-14.11,12.76-22.08,18.03
		c-1.03,0.69-2.04,1.43-3.13,2.02c-5.66,3.09-10.85,6.89-16.12,10.58c-1.05,0.74-0.91,1.3-0.17,2.07c0.92,0.96,2.12,1.31,3.36,1.4
		c2.8,0.22,5.59,0.17,8.38-0.35c1.71-0.32,3.26-0.94,4.69-1.9c0.98-0.65,2.05-1.05,3.19-1.24c1.75-0.29,3.1,0.3,3.91,1.88
		c0.52,1,1.2,1.38,2.29,1.39c1.38,0.01,2.75,0.14,4.12,0.28c0.98,0.1,1.66,0.7,1.69,1.69c0.03,1.08-0.68,1.83-1.7,1.79
		c-2.15-0.09-4.32,0.18-6.45-0.36c-1.01-0.26-1.95-0.71-2.5-1.59c-0.61-0.98-1.22-0.88-2.03-0.33c-5.05,3.39-10.66,3.29-16.34,2.52
		c-2.65-0.36-4.9-1.58-6.15-4.13c-0.37-0.75-0.79-0.27-1.25-0.17c-4.51,1.01-7.96,4.05-11.91,6.14c-4.56,2.43-9.39,3.98-14.56,4.28
		c-1.84,0.11-3.67-0.12-5.41-0.82c-4.33-1.75-6.22-5.61-5.15-10.6c1.09-5.08,3.68-9.5,6.34-13.85c3.54-5.79,8.03-10.85,12.58-15.84
		c4.99-5.47,10.22-10.71,15.94-15.43c1.74-1.43,3.6-2.7,5.45-3.99c0.55-0.39,1.22-0.66,1.87-0.85c1.24-0.36,2.55,0.23,2.96,1.39
		c0.61,1.68,0.21,3.31-0.78,4.71c-0.81,1.15-2.63,0.87-2.96-0.48c-0.36-1.45-0.96-0.92-1.69-0.46c-5.59,3.5-10.72,7.6-15.58,12.05
		c-6.81,6.24-12.96,13.05-17.62,21.08c-2.38,4.11-4.49,8.36-4.44,13.31c0.03,3.66,2.28,6.03,5.94,6.56
		c4.23,0.61,8.22-0.29,12.17-1.61C24.83,100.43,27.07,99.38,29.33,97.88z M39,81.26c1.94-0.12,3.66,0.29,4.78,2.06
		c0.51,0.8,0.83,0.38,1.2-0.12c1.21-1.68,2.46-3.32,3.87-4.83c7.45-8,16.11-14.46,25.52-19.95c0.67-0.39,1.47-0.64,1.87-1.36
		c0.97-1.78,1.81-3.62,2.22-5.62c0.29-1.41-0.36-2.21-1.82-2.28c-1.35-0.06-2.64,0.3-3.9,0.73c-7.45,2.49-14.13,6.41-20.21,11.32
		c-6.26,5.06-11.67,10.91-15.44,18.12c-0.32,0.6-0.95,1.31-0.67,1.87c0.31,0.63,1.14-0.06,1.75,0.07
		C38.44,81.31,38.73,81.26,39,81.26z M73.39,61.91c-0.54,0.2-0.75,0.26-0.95,0.36c-8.81,4.33-16.47,10.17-22.81,17.68
		c-1.6,1.89-3.08,3.89-4.24,6.1c-0.14,0.26-0.43,0.56-0.12,0.87c0.23,0.23,0.52,0.07,0.78-0.03c3.13-1.2,6.31-2.32,8.95-4.47
		c3.89-3.16,7.47-6.66,10.74-10.46C68.4,68.85,71.02,65.72,73.39,61.91z M60.35,79.4c0.53,0.1,0.75-0.18,0.99-0.34
		c6.9-4.42,13.42-9.32,19.18-15.17c1.93-1.96,3.95-3.85,5.5-6.15c0.17-0.26,0.5-0.53,0.34-0.85c-0.2-0.39-0.58-0.11-0.86-0.05
		c-3.17,0.69-6.06,2.1-8.98,3.43c-0.48,0.22-0.75,0.66-1.04,1.07c-2.54,3.66-5.23,7.2-8.15,10.57
		C65.12,74.47,62.83,76.95,60.35,79.4z M31.17,93.99c2.23,0.07,4.16-0.51,5.57-2.39c0.43-0.58,0.61-0.88-0.25-1.14
		c-1.09-0.32-2.01-0.93-2.6-1.92c-0.49-0.83-0.9-0.65-1.48-0.09c-1.04,1.01-1.73,2.25-2.48,3.46c-0.35,0.56-0.99,1.22-0.57,1.86
		C29.72,94.35,30.55,93.94,31.17,93.99z M38.38,88.33c0.2-0.04,0.51-0.01,0.61-0.14c0.59-0.77,1.18-1.66,0.81-2.63
		c-0.32-0.86-1.17-0.42-1.82-0.32c-0.27,0.04-0.56,0.05-0.8,0.16c-0.55,0.24-1.44,0.16-1.48,0.97c-0.04,0.81,0.62,1.29,1.33,1.58
		C37.44,88.13,37.9,88.2,38.38,88.33z"/>
</g>
</svg>
